<mxfile host="app.diagrams.net" agent="Mozilla/5.0 (Macintosh; Intel Mac OS X 10_15_7) AppleWebKit/605.1.15 (KHTML, like Gecko) Version/17.5 Safari/605.1.15" version="26.2.10">
  <diagram name="第 1 页" id="eJHymN24xx117WFf0NfG">
    <mxGraphModel dx="616" dy="384" grid="1" gridSize="10" guides="1" tooltips="1" connect="1" arrows="1" fold="1" page="1" pageScale="1" pageWidth="827" pageHeight="1169" math="0" shadow="0">
      <root>
        <mxCell id="0" />
        <mxCell id="1" parent="0" />
        <mxCell id="EZ3W4FzZBsj1zNst_UjJ-1" value="" style="shape=cube;whiteSpace=wrap;html=1;boundedLbl=1;backgroundOutline=1;darkOpacity=0.05;darkOpacity2=0.1;size=9;rotation=0;movable=1;resizable=1;rotatable=1;deletable=1;editable=1;locked=0;connectable=1;" parent="1" vertex="1">
          <mxGeometry x="386.63" y="900" width="73.37" height="76.5" as="geometry" />
        </mxCell>
        <mxCell id="EZ3W4FzZBsj1zNst_UjJ-2" value="" style="rounded=1;whiteSpace=wrap;html=1;fillColor=#dae8fc;strokeColor=#6c8ebf;movable=1;resizable=1;rotatable=1;deletable=1;editable=1;locked=0;connectable=1;" parent="1" vertex="1">
          <mxGeometry x="405.75" y="957.8699999999999" width="12" height="10" as="geometry" />
        </mxCell>
        <mxCell id="EZ3W4FzZBsj1zNst_UjJ-3" value="" style="endArrow=openThin;html=1;rounded=0;endFill=0;endSize=3;dashed=1;edgeStyle=orthogonalEdgeStyle;entryX=0.5;entryY=1;entryDx=0;entryDy=0;entryPerimeter=0;exitX=0.5;exitY=0;exitDx=0;exitDy=0;" parent="1" source="EZ3W4FzZBsj1zNst_UjJ-2" edge="1">
          <mxGeometry width="50" height="50" relative="1" as="geometry">
            <mxPoint x="442.25" y="964.1799999999998" as="sourcePoint" />
            <mxPoint x="411.75" y="948.6799999999998" as="targetPoint" />
            <Array as="points">
              <mxPoint x="412.25" y="948.6799999999998" />
            </Array>
          </mxGeometry>
        </mxCell>
        <mxCell id="EZ3W4FzZBsj1zNst_UjJ-4" value="" style="verticalLabelPosition=bottom;verticalAlign=top;html=1;shape=mxgraph.basic.diag_round_rect;dx=6;whiteSpace=wrap;container=0;" parent="1" vertex="1">
          <mxGeometry x="407.25" y="982.55" width="10.5" height="16.13" as="geometry" />
        </mxCell>
        <mxCell id="EZ3W4FzZBsj1zNst_UjJ-5" value="" style="image;html=1;image=img/lib/clip_art/networking/Ip_Camera_128x128.png;container=0;" parent="1" vertex="1">
          <mxGeometry x="409.75" y="986.69" width="16.5" height="12.86" as="geometry" />
        </mxCell>
        <mxCell id="EZ3W4FzZBsj1zNst_UjJ-6" value="" style="endArrow=classic;html=1;rounded=0;entryX=0.5;entryY=1;entryDx=0;entryDy=0;endSize=1;startSize=3;dashed=1;exitX=0.429;exitY=0.034;exitDx=0;exitDy=0;exitPerimeter=0;" parent="1" source="EZ3W4FzZBsj1zNst_UjJ-4" target="EZ3W4FzZBsj1zNst_UjJ-2" edge="1">
          <mxGeometry width="50" height="50" relative="1" as="geometry">
            <mxPoint x="443.75" y="992.6799999999998" as="sourcePoint" />
            <mxPoint x="428" y="993.6799999999998" as="targetPoint" />
          </mxGeometry>
        </mxCell>
        <mxCell id="EZ3W4FzZBsj1zNst_UjJ-7" value="&lt;span style=&quot;font-family: &amp;quot;Microsoft Yahei&amp;quot;, Helvetica, Arial, sans-serif; text-align: start; text-wrap-mode: wrap;&quot;&gt;&lt;font style=&quot;font-size: 6px; color: rgb(0, 0, 0);&quot;&gt;①&lt;/font&gt;&lt;/span&gt;" style="text;html=1;align=center;verticalAlign=middle;resizable=0;points=[];autosize=1;strokeColor=none;fillColor=none;labelBackgroundColor=none;" parent="1" vertex="1">
          <mxGeometry x="390" y="906.13" width="30" height="30" as="geometry" />
        </mxCell>
        <mxCell id="EZ3W4FzZBsj1zNst_UjJ-8" value="&lt;span style=&quot;font-family: &amp;quot;Microsoft Yahei&amp;quot;, Helvetica, Arial, sans-serif; text-align: start; text-wrap-mode: wrap; background-color: rgb(255, 255, 255);&quot;&gt;&lt;font style=&quot;font-size: 6px; color: rgb(0, 0, 0);&quot;&gt;②&lt;/font&gt;&lt;/span&gt;" style="text;html=1;align=center;verticalAlign=middle;resizable=0;points=[];autosize=1;strokeColor=none;fillColor=none;" parent="1" vertex="1">
          <mxGeometry x="461.75" y="935.3699999999999" width="30" height="30" as="geometry" />
        </mxCell>
        <mxCell id="EZ3W4FzZBsj1zNst_UjJ-9" value="" style="html=1;verticalLabelPosition=bottom;align=center;labelBackgroundColor=#ffffff;verticalAlign=top;strokeWidth=1;strokeColor=#000000;shadow=0;dashed=0;shape=mxgraph.ios7.icons.cloud;" parent="1" vertex="1">
          <mxGeometry x="471.80999999999995" y="899" width="58.62" height="36.37" as="geometry" />
        </mxCell>
        <mxCell id="EZ3W4FzZBsj1zNst_UjJ-10" value="&lt;div style=&quot;line-height: 80%;&quot;&gt;&lt;br&gt;&lt;/div&gt;" style="rounded=1;whiteSpace=wrap;html=1;" parent="1" vertex="1">
          <mxGeometry x="486.75" y="914.5" width="29" height="18" as="geometry" />
        </mxCell>
        <mxCell id="EZ3W4FzZBsj1zNst_UjJ-11" value="" style="endArrow=openThin;html=1;rounded=0;endFill=0;endSize=3;dashed=1;edgeStyle=orthogonalEdgeStyle;entryX=0;entryY=0.5;entryDx=0;entryDy=0;exitX=1.003;exitY=0.755;exitDx=0;exitDy=0;exitPerimeter=0;" parent="1" source="EZ3W4FzZBsj1zNst_UjJ-26" target="EZ3W4FzZBsj1zNst_UjJ-10" edge="1">
          <mxGeometry width="50" height="50" relative="1" as="geometry">
            <mxPoint x="421" y="938.6799999999998" as="sourcePoint" />
            <mxPoint x="522" y="980.6799999999998" as="targetPoint" />
            <Array as="points">
              <mxPoint x="471" y="943" />
              <mxPoint x="471" y="923" />
            </Array>
          </mxGeometry>
        </mxCell>
        <mxCell id="EZ3W4FzZBsj1zNst_UjJ-12" value="&lt;span style=&quot;font-family: &amp;quot;Microsoft Yahei&amp;quot;, Helvetica, Arial, sans-serif; font-style: normal; font-variant-ligatures: normal; font-variant-caps: normal; font-weight: 400; letter-spacing: normal; orphans: 2; text-align: start; text-indent: 0px; text-transform: none; widows: 2; word-spacing: 0px; -webkit-text-stroke-width: 0px; white-space: normal; background-color: rgb(255, 255, 255); text-decoration-thickness: initial; text-decoration-style: initial; text-decoration-color: initial; float: none; display: inline !important;&quot;&gt;&lt;font style=&quot;font-size: 6px; color: rgb(0, 0, 0);&quot;&gt;③&lt;/font&gt;&lt;/span&gt;" style="text;whiteSpace=wrap;html=1;" parent="1" vertex="1">
          <mxGeometry x="460.8799999999999" y="914.5" width="50" height="40" as="geometry" />
        </mxCell>
        <mxCell id="EZ3W4FzZBsj1zNst_UjJ-13" value="" style="rounded=1;whiteSpace=wrap;html=1;fillColor=#dae8fc;strokeColor=#6c8ebf;container=0;fontStyle=1" parent="1" vertex="1">
          <mxGeometry x="476.75" y="1013.8399999999999" width="12" height="10" as="geometry" />
        </mxCell>
        <mxCell id="EZ3W4FzZBsj1zNst_UjJ-14" value="&lt;font style=&quot;font-size: 6px;&quot;&gt;设备管理器&lt;/font&gt;" style="text;html=1;align=center;verticalAlign=middle;whiteSpace=wrap;rounded=0;fontStyle=1" parent="1" vertex="1">
          <mxGeometry x="482.5" y="1012.3399999999999" width="51.5" height="10.5" as="geometry" />
        </mxCell>
        <mxCell id="EZ3W4FzZBsj1zNst_UjJ-15" value="" style="rounded=1;whiteSpace=wrap;html=1;fontStyle=1;imageWidth=24;" parent="1" vertex="1">
          <mxGeometry x="383" y="1013.75" width="12" height="9.5" as="geometry" />
        </mxCell>
        <mxCell id="EZ3W4FzZBsj1zNst_UjJ-16" value="&lt;font style=&quot;font-size: 6px;&quot;&gt;云端节点&lt;/font&gt;" style="text;html=1;align=center;verticalAlign=middle;whiteSpace=wrap;rounded=0;fontStyle=1" parent="1" vertex="1">
          <mxGeometry x="393.5" y="1012.5" width="37" height="10.5" as="geometry" />
        </mxCell>
        <mxCell id="EZ3W4FzZBsj1zNst_UjJ-17" value="" style="shape=image;verticalLabelPosition=bottom;labelBackgroundColor=default;verticalAlign=top;aspect=fixed;imageAspect=0;image=data:image/png,iVBORw0KGgoAAAANSUhEUgAAARwAAAFECAYAAAD1KYF6AAAAAXNSR0IArs4c6QAADolJREFUeF7t3U2S3dYVBOHmOrhLcaSR5ZFG1C65jrYYkoNqNUm8n8IFTuFThEfGK1xkAhltD+wPL/5BAAEEFhH4sOg+boMAAgi8CI6XAAEElhEQnGWo3QgBBATHO4AAAssICM4y1G6EAAKC4x1AAIFlBARnGWo3QgABwfEOIIDAMgKCswy1GyGAgOB4BxBAYBkBwVmG2o0QQEBwvAMIILCMgOAsQ+1GCCAgON4BBBBYRkBwlqF2IwQQEBzvAAIILCMgOMtQuxECCAiOdwABBJYREJxlqN0IAQQExzuAAALLCAjOMtRuhAACguMdQACBZQQEZxlqN0IAAcHxDiCAwDICgrMMtRshgIDgeAcQQGAZAcFZhtqNEEBAcLwDCCCwjIDgLEPtRgggIDjeAQQQWEZAcJahdiMEEBAc7wACCCwjIDjLULsRAggIjncAAQSWERCcZajdCAEEBMc7gAACywgIzjLUboQAAoLjHUAAgWUEBGcZajdCAIEJwXmlCYGTEPjvn+f47SRnGXkMwRmpzaEPJCA6T8AXnCfg+ellCYjOg+oF50FwfnZ5AqLzwCswOji//vrry9d/+QeBPQn8/vvvL1//9Z1/ROdO8KOD8/VZRedO4y5/iIDoPITt3Y/GB0d0Mi+ClW0CorPNaOuKccH59OnTy+fPn989l790tlT79xMEROc5iuOC8+XLl5c//vhDdJ7z7tdPEBCdx+GNDM7XxxWdx6X75fMEROcxhmODIzqPCferHAHRuZ/l6OCIzv3C/SJLQHTu4zk+OKJzn3BX5wmIzu1MK4IjOrcLd+U+BETnNq41wRGd24S7aj8CorPNtio4orMt3BX7EhCdn/OtC47o7PtBWd8mIDo/ZlQZHNHZ/ihcsS8B0fk+39rgiM6+H5T1bQKi855RdXBEZ/ujcMW+BETnLd/64IjOvh+U9W0CovON0SWCIzrbH4Ur9iUgOn/xvUxwRGffD8r6NgHRuVhwRGf7o3DFvgSuHp1L/YXz/1fJ/7TFvh+V9Z8TuHJ0Lhkcf+lIwtEErhqdywZHdI7+5Nz/itG5dHBEx0d/NIGrRefywRGdoz85979SdATn7/fdf5Hswz+SwFWiIzj/eMtE58hPzr2vEB3B+dd7Ljo+/CMJtEdHcL7zdonOkZ+cezdHR3B+8H6Ljg//SAKt0RGcn7xVonPkJ+fejdERnI33WnR8+EcSaIuO4NzwNonODZBcshuBpugIzo2viejcCMpluxBoiY7g3PF6iM4dsFwaJ9AQHcG587UQnTuBuTxKYHp0BOeB1+FH0Xlgyk8QSBL4759jvyUH01uC8yBR0XkQnJ/tTeDU3/SpD/e3mdd/Gvry5cvewm7eF52bUblwHYFTf9OnPtzZg/P1fB8/flz3KrkTAtsETv1Nn/pwE4Pz+vrmD7Lt18MVCDxB4MOHd5/wqb/pUx9OcJ54E/30EgQEJ6/5tP8dzvf+I5W/cPIvgMUfExCc/NshOHmmFksICE5epODkmVosISA4eZGCk2dqsYSA4ORFCk6eqcUSAoKTFyk4eaYWSwgITl6k4OSZWiwhIDh5kYKTZ2qxhIDg5EUKTp6pxRICgpMXKTh5phZLCAhOXqTg5JlaLCEgOHmRgpNnarGEgODkRQpOnqnFEgKCkxcpOHmmFksICE5epODkmVosISA4eZGCk2dqsYSA4ORFCk6eqcUSAoKTFyk4eaYWSwgITl6k4OSZWiwhIDh5kYKTZ2qxhIDg5EUKTp6pxRICgpMXKTh5phZLCAhOXqTg5JlaLCEgOHmRgpNnarGEgODkRQpOnqnFEgKCkxcpOHmmFksICE5epODkmVosISA4eZGCk2dqsYSA4ORFCk6eqcUSAoKTFyk4eaYWSwgITl6k4OSZWiwhIDh5kYKTZ2qxhIDg5EUKTp6pxRICgpMXKTh5phZLCAhOXqTg5JlaLCEgOHmRgpNnarGEgODkRQpOnqnFEgKCkxcpOHmmFksICE5epODkmVosISA4eZGCk2dqsYSA4ORFCk6eqcUSAoKTFyk4eaYWSwgITl6k4OSZWiwhIDh5kYKTZ2qxhIDg5EUKTp6pxRICgpMXKTh5phZLCAhOXqTg5JlaLCEgOHmRgpNnarGEgODkRQpOnqnFEgKCkxcpOHmmFksICE5epODkmVosISA4eZGCk2dqsYSA4ORFCk6eqcUSAoKTFyk4eaYWSwgITl6k4OSZWiwhIDh5kYKTZ2qxhIDg5EUKTp6pxRICgpMXKTh5phZLCAhOXqTg5JlaLCEgOHmRgpNnarGEgODkRQpOnqnFEgKCkxcpOHmmFksICE5epODkmVosISA4eZGCk2dqsYSA4ORFCk6eqcUSAoKTFyk4eaYWSwgITl6k4OSZWiwhIDh5kYKTZ2qxhIDg5EUKTp6pxRICgpMXKTh5phZLCAhOXqTg5JlaLCEgOHmRgpNnarGEgODkRQpOnqnFEgKCkxcpOHmmFksICE5epODkmVosISA4eZGCk2dqsYSA4ORFCk6eqcUSAoKTFyk4eaYWSwgITl6k4OSZWiwhIDh5kYKTZ2qxhIDg5EUKTp6pxRICgpMXKTh5phZLCAhOXqTg5JlaLCEgOHmRgpNnarGEgODkRQpOnqnFEgKCkxcpOHmmFksICE5epODkmVosISA4eZGCk2dqsYSA4ORFCk6eqcUSAoKTFyk4eaYWSwgITl6k4OSZWiwhIDh5kYKTZ2qxhIDg5EUKTp6pxRICgpMXKTh5phZLCAhOXqTg5JlaLCEgOHmRgpNnarGEgODkRQpOnqnFEgKCkxcpOHmmFksICE5epODkmVosISA4eZGCk2dqsYSA4ORFCk6eqcUSAoKTFyk4eaYWSwgITl6k4OSZWiwhIDh5kYKTZ2qxhIDg5EUKTp6pxRICgpMXKTh5phZLCAhOXqTg5JlaLCEgOHmRgpNnarGEgODkRQpOnqnFEgKCkxcpOHmmFksICE5epODkmVosISA4eZGCk2dqsYSA4ORFCk6eqcUSAoKTFyk4eaYWSwgITl6k4OSZWiwhIDh5kYKTZ2qxhIDg5EUKTp6pxRICgpMXKTh5phZLCAhOXqTg5JlaLCEgOHmRgpNnarGEgODkRQpOnqnFEgKCkxcpOHmmFksICE5epODkmVosISA4eZGCk2dqsYSA4ORFCk6eqcUSAoKTFyk4eaYWSwgITl6k4OSZWiwhIDh5kYKTZ2qxhIDg5EUKTp6pxRICgpMXKTh5phZLCAhOXqTg5JlaLCEgOHmRgpNnarGEgODkRQpOnqnFEgKCkxcpOHmmFksICE5epODkmVosISA4eZGCk2dqsYSA4ORFCk6eqcUSAoKTFyk4eaYWSwgITl6k4OSZWiwhIDh5kYKTZ2qxhIDg5EUKTp6pxRICgpMXKTh5phZLCAhOXqTg5JlaLCEgOHmRgpNnarGEgODkRQpOnqnFEgKCkxcpOHmmFksICE5epODkmVosISA4eZGCk2dqsYSA4ORFCk6eqcUSAoKTFyk4eaYWSwgITl6k4OSZWiwhIDh5kYKTZ2qxhIDg5EUKTp6pxRICgpMXKTh5phZLCAhOXqTg5JlaLCEgOHmRb4Lz6dOnl19++SV/lwcXP378+OaXr69vjvvgqp8hcBsBwbmN0z1XvfuCzxQdwblHpWvTBAQnTfTl5beXl5f//Hv2LNERnLxwi7cTEJzbWd1z5WmjIzj3aHRtmoDgpIl+2ztldARnP+GWtwkIzjajZ644XXQE5xmdfvssAcF5luD2708VHcHZFuaK/QgIzn5s/7l8mugIzhrh7vJ9AoKz7s04RXQEZ51wd3pPQHDWvhWHR0dw1gp3t7cEBGf9G3FodARnvXB3/EZAcI55Gw6LjuAcI9xd/yIgOMe9CYdER3COE+7OgnP0O7A8OoJztPJr399fOMf7XxodwTle+JVPIDjnsL8sOoJzDuFXPYXgnMf8kugIznmEX/EkgnMu67tHR3DOJfxqpxGc8xnfNTqCcz7hVzqR4JzT9m7REZxzCr/KqQTnvKZ3iY7gnFf4FU4mOOe2HI+O4JxbePvpBOf8hqPREZzzC28+oeDMsBuLjuDMEN56SsGZYzYSHcGZI7zxpIIzy+rT0RGcWcLbTis484w+FR3BmSe86cSCM9Pmw9ERnJnCW04tOHNNPhQdwZkrvOHkgjPb4t3REZzZwqefXnCmG7zz/8tccOYLn/wEgjPZ3rez3/yXjuB0CJ/6FIIz1dz7c98UHcHpET7xSQRnorUfn3kzOoLTJXza0wjONGPb5/1pdARnG6Ar9iMgOPuxPXL5h9H5/Pnzm3O9vr4eeU73vhgBwekV/t3o/PtxBaf3BTjjkwnOGa3kzrQZHcHJwba0TUBwthlNv+Kn0RGc6XpnnV9wZvl69LSbf+k8Oux3CDxJ4MOTv9/156c+3K5P/vy46DzP0EKewKm/6VMfLu8ivig6caQGnyRw6m/61Id7Evyqn4vOKtLucwuBU3/Tpz7cLXRdgwACcwgIzhxXTorAeAKCM16hB0BgDgHBmePKSREYT0Bwxiv0AAjMISA4c1w5KQLjCQjOeIUeAIE5BARnjisnRWA8AcEZr9ADIDCHgODMceWkCIwnIDjjFXoABOYQEJw5rpwUgfEEBGe8Qg+AwBwCgjPHlZMiMJ6A4IxX6AEQmENAcOa4clIExhMQnPEKPQACcwgIzhxXTorAeAKCM16hB0BgDgHBmePKSREYT0Bwxiv0AAjMISA4c1w5KQLjCQjOeIUeAIE5BARnjisnRWA8AcEZr9ADIDCHgODMceWkCIwnIDjjFXoABOYQEJw5rpwUgfEEBGe8Qg+AwBwCgjPHlZMiMJ6A4IxX6AEQmENAcOa4clIExhMQnPEKPQACcwgIzhxXTorAeAKCM16hB0BgDgHBmePKSREYT0Bwxiv0AAjMISA4c1w5KQLjCQjOeIUeAIE5BARnjisnRWA8gf8BrBRdri7OPKMAAAAASUVORK5CYII=;" parent="1" vertex="1">
          <mxGeometry x="428.75" y="1009.6599999999999" width="15.5" height="17.68" as="geometry" />
        </mxCell>
        <mxCell id="EZ3W4FzZBsj1zNst_UjJ-18" value="&lt;font style=&quot;font-size: 6px;&quot;&gt;边端节点&lt;/font&gt;" style="text;html=1;align=center;verticalAlign=middle;whiteSpace=wrap;rounded=0;fontStyle=1" parent="1" vertex="1">
          <mxGeometry x="440" y="1012.3400000000001" width="37" height="10.5" as="geometry" />
        </mxCell>
        <mxCell id="EZ3W4FzZBsj1zNst_UjJ-19" value="" style="verticalLabelPosition=bottom;verticalAlign=top;html=1;shape=mxgraph.basic.diag_round_rect;dx=6;whiteSpace=wrap;fontStyle=1" parent="1" vertex="1">
          <mxGeometry x="530.97" y="1013.1199999999999" width="8" height="10.13" as="geometry" />
        </mxCell>
        <mxCell id="EZ3W4FzZBsj1zNst_UjJ-20" value="&lt;font style=&quot;font-size: 6px;&quot;&gt;设备&lt;/font&gt;" style="text;html=1;align=center;verticalAlign=middle;whiteSpace=wrap;rounded=0;fontStyle=1" parent="1" vertex="1">
          <mxGeometry x="538.9699999999998" y="1014.1500000000001" width="24" height="7.42" as="geometry" />
        </mxCell>
        <mxCell id="EZ3W4FzZBsj1zNst_UjJ-21" value="&lt;span style=&quot;font-size: 6px;&quot;&gt;转发器&lt;/span&gt;" style="text;html=1;align=center;verticalAlign=middle;whiteSpace=wrap;rounded=0;fontStyle=1" parent="1" vertex="1">
          <mxGeometry x="573.25" y="1011.4200000000001" width="37" height="10.5" as="geometry" />
        </mxCell>
        <mxCell id="EZ3W4FzZBsj1zNst_UjJ-22" value="" style="shape=cube;whiteSpace=wrap;html=1;boundedLbl=1;backgroundOutline=1;darkOpacity=0.05;darkOpacity2=0.1;size=10;rotation=0;movable=1;resizable=1;rotatable=1;deletable=1;editable=1;locked=0;connectable=1;" parent="1" vertex="1">
          <mxGeometry x="483.68000000000006" y="939.8800000000001" width="40" height="46.25" as="geometry" />
        </mxCell>
        <mxCell id="EZ3W4FzZBsj1zNst_UjJ-23" value="" style="endArrow=openThin;html=1;rounded=0;endFill=0;endSize=3;dashed=1;edgeStyle=orthogonalEdgeStyle;entryX=0;entryY=0;entryDx=0;entryDy=20;entryPerimeter=0;" parent="1" edge="1">
          <mxGeometry width="50" height="50" relative="1" as="geometry">
            <mxPoint x="421.25" y="943.2799999999999" as="sourcePoint" />
            <mxPoint x="483.68000000000006" y="964.4800000000001" as="targetPoint" />
            <Array as="points">
              <mxPoint x="471" y="943.6" />
              <mxPoint x="471" y="964.6" />
            </Array>
          </mxGeometry>
        </mxCell>
        <mxCell id="EZ3W4FzZBsj1zNst_UjJ-24" value="..." style="text;html=1;align=center;verticalAlign=middle;whiteSpace=wrap;rounded=0;" parent="1" vertex="1">
          <mxGeometry x="477.75" y="948.6799999999998" width="60" height="30" as="geometry" />
        </mxCell>
        <mxCell id="EZ3W4FzZBsj1zNst_UjJ-25" value="..." style="text;html=1;align=center;verticalAlign=middle;whiteSpace=wrap;rounded=0;" parent="1" vertex="1">
          <mxGeometry x="471.1200000000001" y="906.4299999999998" width="60" height="30" as="geometry" />
        </mxCell>
        <mxCell id="EZ3W4FzZBsj1zNst_UjJ-26" value="" style="points=[];aspect=fixed;html=1;align=center;shadow=0;dashed=0;fillColor=light-dark(#00bef2, #E9690E);strokeColor=none;shape=mxgraph.alibaba_cloud.cdt_cloud_datatransfer;" parent="1" vertex="1">
          <mxGeometry x="400.2499999999998" y="930.06" width="21.1" height="17.81" as="geometry" />
        </mxCell>
        <mxCell id="EZ3W4FzZBsj1zNst_UjJ-27" value="" style="points=[];aspect=fixed;html=1;align=center;shadow=0;dashed=0;fillColor=light-dark(#00bef2, #E9690E);strokeColor=none;shape=mxgraph.alibaba_cloud.cdt_cloud_datatransfer;" parent="1" vertex="1">
          <mxGeometry x="564.2499999999998" y="1011.4200000000001" width="15" height="12.66" as="geometry" />
        </mxCell>
        <mxCell id="EZ3W4FzZBsj1zNst_UjJ-28" value="" style="endArrow=openThin;html=1;rounded=0;endFill=0;endSize=3;dashed=1;edgeStyle=orthogonalEdgeStyle;exitX=0.502;exitY=-0.111;exitDx=0;exitDy=0;exitPerimeter=0;" parent="1" edge="1">
          <mxGeometry width="50" height="50" relative="1" as="geometry">
            <mxPoint x="411.1521999999998" y="930.0630900000001" as="sourcePoint" />
            <mxPoint x="420" y="919" as="targetPoint" />
            <Array as="points">
              <mxPoint x="411.52" y="918.83" />
            </Array>
          </mxGeometry>
        </mxCell>
        <mxCell id="EZ3W4FzZBsj1zNst_UjJ-29" value="" style="endArrow=none;dashed=1;html=1;dashPattern=1 3;strokeWidth=2;rounded=0;" parent="1" edge="1">
          <mxGeometry width="50" height="50" relative="1" as="geometry">
            <mxPoint x="536.6299999999999" y="1000" as="sourcePoint" />
            <mxPoint x="536.6299999999999" y="890" as="targetPoint" />
          </mxGeometry>
        </mxCell>
        <mxCell id="EZ3W4FzZBsj1zNst_UjJ-30" value="" style="sketch=0;html=1;aspect=fixed;strokeColor=none;shadow=0;fillColor=#3B8DF1;verticalAlign=top;labelPosition=center;verticalLabelPosition=bottom;shape=mxgraph.gcp2.process" parent="1" vertex="1">
          <mxGeometry x="609.2499999999998" y="1009.1499999999999" width="12" height="14.29" as="geometry" />
        </mxCell>
        <mxCell id="EZ3W4FzZBsj1zNst_UjJ-31" value="&lt;span style=&quot;font-size: 6px;&quot;&gt;预处理&lt;/span&gt;" style="text;html=1;align=center;verticalAlign=middle;whiteSpace=wrap;rounded=0;fontStyle=1" parent="1" vertex="1">
          <mxGeometry x="617.1199999999999" y="1011.4200000000001" width="37" height="10.5" as="geometry" />
        </mxCell>
        <mxCell id="EZ3W4FzZBsj1zNst_UjJ-32" value="" style="sketch=0;points=[[0,0,0],[0.25,0,0],[0.5,0,0],[0.75,0,0],[1,0,0],[0,1,0],[0.25,1,0],[0.5,1,0],[0.75,1,0],[1,1,0],[0,0.25,0],[0,0.5,0],[0,0.75,0],[1,0.25,0],[1,0.5,0],[1,0.75,0]];outlineConnect=0;fontColor=#232F3E;fillColor=#01A88D;strokeColor=#ffffff;dashed=0;verticalLabelPosition=bottom;verticalAlign=top;align=center;html=1;fontSize=12;fontStyle=0;aspect=fixed;shape=mxgraph.aws4.resourceIcon;resIcon=mxgraph.aws4.augmented_ai;" parent="1" vertex="1">
          <mxGeometry x="651.6199999999997" y="1008.8400000000001" width="14" height="14" as="geometry" />
        </mxCell>
        <mxCell id="EZ3W4FzZBsj1zNst_UjJ-33" value="&lt;span style=&quot;font-size: 6px;&quot;&gt;AI推理实例&lt;/span&gt;" style="text;html=1;align=center;verticalAlign=middle;whiteSpace=wrap;rounded=0;fontStyle=1" parent="1" vertex="1">
          <mxGeometry x="665.6199999999999" y="1011.6599999999999" width="37" height="10.5" as="geometry" />
        </mxCell>
        <mxCell id="EZ3W4FzZBsj1zNst_UjJ-37" value="" style="shape=cube;whiteSpace=wrap;html=1;boundedLbl=1;backgroundOutline=1;darkOpacity=0.05;darkOpacity2=0.1;size=9;rotation=0;movable=1;resizable=1;rotatable=1;deletable=1;editable=1;locked=0;connectable=1;" parent="1" vertex="1">
          <mxGeometry x="555.13" y="900.13" width="73.37" height="76.5" as="geometry" />
        </mxCell>
        <mxCell id="EZ3W4FzZBsj1zNst_UjJ-38" value="" style="rounded=1;whiteSpace=wrap;html=1;fillColor=#dae8fc;strokeColor=#6c8ebf;movable=1;resizable=1;rotatable=1;deletable=1;editable=1;locked=0;connectable=1;" parent="1" vertex="1">
          <mxGeometry x="574.25" y="957.9999999999999" width="12" height="10" as="geometry" />
        </mxCell>
        <mxCell id="EZ3W4FzZBsj1zNst_UjJ-39" value="" style="endArrow=openThin;html=1;rounded=0;endFill=0;endSize=3;dashed=1;edgeStyle=orthogonalEdgeStyle;entryX=0.022;entryY=0.617;entryDx=0;entryDy=0;entryPerimeter=0;exitX=0.382;exitY=0.016;exitDx=0;exitDy=0;exitPerimeter=0;" parent="1" source="EZ3W4FzZBsj1zNst_UjJ-57" target="EZ3W4FzZBsj1zNst_UjJ-52" edge="1">
          <mxGeometry width="50" height="50" relative="1" as="geometry">
            <mxPoint x="578.25" y="942.9799999999999" as="sourcePoint" />
            <mxPoint x="578.25" y="933.7899999999998" as="targetPoint" />
            <Array as="points">
              <mxPoint x="579" y="930" />
            </Array>
          </mxGeometry>
        </mxCell>
        <mxCell id="EZ3W4FzZBsj1zNst_UjJ-40" value="" style="verticalLabelPosition=bottom;verticalAlign=top;html=1;shape=mxgraph.basic.diag_round_rect;dx=6;whiteSpace=wrap;container=0;" parent="1" vertex="1">
          <mxGeometry x="575.75" y="982.68" width="10.5" height="16.13" as="geometry" />
        </mxCell>
        <mxCell id="EZ3W4FzZBsj1zNst_UjJ-41" value="" style="image;html=1;image=img/lib/clip_art/networking/Ip_Camera_128x128.png;container=0;" parent="1" vertex="1">
          <mxGeometry x="578.25" y="986.82" width="16.5" height="12.86" as="geometry" />
        </mxCell>
        <mxCell id="EZ3W4FzZBsj1zNst_UjJ-42" value="" style="endArrow=classic;html=1;rounded=0;entryX=0.5;entryY=1;entryDx=0;entryDy=0;endSize=1;startSize=3;dashed=1;exitX=0.429;exitY=0.034;exitDx=0;exitDy=0;exitPerimeter=0;" parent="1" source="EZ3W4FzZBsj1zNst_UjJ-40" target="EZ3W4FzZBsj1zNst_UjJ-38" edge="1">
          <mxGeometry width="50" height="50" relative="1" as="geometry">
            <mxPoint x="612.25" y="992.8099999999998" as="sourcePoint" />
            <mxPoint x="596.5" y="993.8099999999998" as="targetPoint" />
          </mxGeometry>
        </mxCell>
        <mxCell id="EZ3W4FzZBsj1zNst_UjJ-43" value="&lt;span style=&quot;font-family: &amp;quot;Microsoft Yahei&amp;quot;, Helvetica, Arial, sans-serif; text-align: start; text-wrap-mode: wrap;&quot;&gt;&lt;font style=&quot;font-size: 6px; color: rgb(0, 0, 0);&quot;&gt;①&lt;/font&gt;&lt;/span&gt;" style="text;html=1;align=center;verticalAlign=middle;resizable=0;points=[];autosize=1;strokeColor=none;fillColor=none;labelBackgroundColor=none;" parent="1" vertex="1">
          <mxGeometry x="587.2" y="925.5" width="30" height="30" as="geometry" />
        </mxCell>
        <mxCell id="EZ3W4FzZBsj1zNst_UjJ-44" value="&lt;span style=&quot;font-family: &amp;quot;Microsoft Yahei&amp;quot;, Helvetica, Arial, sans-serif; text-align: start; text-wrap-mode: wrap; background-color: rgb(255, 255, 255);&quot;&gt;&lt;font style=&quot;font-size: 6px; color: rgb(0, 0, 0);&quot;&gt;②&lt;/font&gt;&lt;/span&gt;" style="text;html=1;align=center;verticalAlign=middle;resizable=0;points=[];autosize=1;strokeColor=none;fillColor=none;" parent="1" vertex="1">
          <mxGeometry x="630.25" y="935.4999999999999" width="30" height="30" as="geometry" />
        </mxCell>
        <mxCell id="EZ3W4FzZBsj1zNst_UjJ-45" value="" style="html=1;verticalLabelPosition=bottom;align=center;labelBackgroundColor=#ffffff;verticalAlign=top;strokeWidth=1;strokeColor=#000000;shadow=0;dashed=0;shape=mxgraph.ios7.icons.cloud;" parent="1" vertex="1">
          <mxGeometry x="640.31" y="899.13" width="58.62" height="36.37" as="geometry" />
        </mxCell>
        <mxCell id="EZ3W4FzZBsj1zNst_UjJ-46" value="&lt;div style=&quot;line-height: 80%;&quot;&gt;&lt;br&gt;&lt;/div&gt;" style="rounded=1;whiteSpace=wrap;html=1;" parent="1" vertex="1">
          <mxGeometry x="655.25" y="914.63" width="29" height="18" as="geometry" />
        </mxCell>
        <mxCell id="EZ3W4FzZBsj1zNst_UjJ-47" value="" style="endArrow=openThin;html=1;rounded=0;endFill=0;endSize=3;dashed=1;edgeStyle=orthogonalEdgeStyle;entryX=0;entryY=0.5;entryDx=0;entryDy=0;exitX=1.003;exitY=0.755;exitDx=0;exitDy=0;exitPerimeter=0;" parent="1" source="EZ3W4FzZBsj1zNst_UjJ-52" target="EZ3W4FzZBsj1zNst_UjJ-46" edge="1">
          <mxGeometry width="50" height="50" relative="1" as="geometry">
            <mxPoint x="589.5" y="938.8099999999998" as="sourcePoint" />
            <mxPoint x="690.4999999999999" y="980.8099999999998" as="targetPoint" />
            <Array as="points">
              <mxPoint x="640" y="932" />
              <mxPoint x="640" y="924" />
            </Array>
          </mxGeometry>
        </mxCell>
        <mxCell id="EZ3W4FzZBsj1zNst_UjJ-48" value="&lt;span style=&quot;font-family: &amp;quot;Microsoft Yahei&amp;quot;, Helvetica, Arial, sans-serif; font-style: normal; font-variant-ligatures: normal; font-variant-caps: normal; font-weight: 400; letter-spacing: normal; orphans: 2; text-align: start; text-indent: 0px; text-transform: none; widows: 2; word-spacing: 0px; -webkit-text-stroke-width: 0px; white-space: normal; background-color: rgb(255, 255, 255); text-decoration-thickness: initial; text-decoration-style: initial; text-decoration-color: initial; float: none; display: inline !important;&quot;&gt;&lt;font style=&quot;font-size: 6px; color: rgb(0, 0, 0);&quot;&gt;③&lt;/font&gt;&lt;/span&gt;" style="text;whiteSpace=wrap;html=1;" parent="1" vertex="1">
          <mxGeometry x="628.4999999999999" y="908.68" width="50" height="40" as="geometry" />
        </mxCell>
        <mxCell id="EZ3W4FzZBsj1zNst_UjJ-49" value="" style="shape=cube;whiteSpace=wrap;html=1;boundedLbl=1;backgroundOutline=1;darkOpacity=0.05;darkOpacity2=0.1;size=10;rotation=0;movable=1;resizable=1;rotatable=1;deletable=1;editable=1;locked=0;connectable=1;" parent="1" vertex="1">
          <mxGeometry x="652.1800000000001" y="940.0100000000001" width="40" height="46.25" as="geometry" />
        </mxCell>
        <mxCell id="EZ3W4FzZBsj1zNst_UjJ-50" value="" style="endArrow=openThin;html=1;rounded=0;endFill=0;endSize=3;dashed=1;edgeStyle=orthogonalEdgeStyle;entryX=0;entryY=0;entryDx=0;entryDy=20;entryPerimeter=0;exitX=0.992;exitY=0.749;exitDx=0;exitDy=0;exitPerimeter=0;" parent="1" source="EZ3W4FzZBsj1zNst_UjJ-52" edge="1">
          <mxGeometry width="50" height="50" relative="1" as="geometry">
            <mxPoint x="589.75" y="943.4099999999999" as="sourcePoint" />
            <mxPoint x="652.1800000000001" y="964.6100000000001" as="targetPoint" />
            <Array as="points">
              <mxPoint x="640" y="932" />
              <mxPoint x="640" y="965" />
            </Array>
          </mxGeometry>
        </mxCell>
        <mxCell id="EZ3W4FzZBsj1zNst_UjJ-51" value="..." style="text;html=1;align=center;verticalAlign=middle;whiteSpace=wrap;rounded=0;" parent="1" vertex="1">
          <mxGeometry x="639.6200000000001" y="906.5599999999998" width="60" height="30" as="geometry" />
        </mxCell>
        <mxCell id="EZ3W4FzZBsj1zNst_UjJ-52" value="" style="points=[];aspect=fixed;html=1;align=center;shadow=0;dashed=0;fillColor=light-dark(#00bef2, #E9690E);strokeColor=none;shape=mxgraph.alibaba_cloud.cdt_cloud_datatransfer;" parent="1" vertex="1">
          <mxGeometry x="598.1999999999998" y="918.9999999999999" width="21.1" height="17.81" as="geometry" />
        </mxCell>
        <mxCell id="EZ3W4FzZBsj1zNst_UjJ-53" value="" style="endArrow=openThin;html=1;rounded=0;endFill=0;endSize=3;dashed=1;exitX=0.499;exitY=1.026;exitDx=0;exitDy=0;exitPerimeter=0;" parent="1" source="EZ3W4FzZBsj1zNst_UjJ-52" target="EZ3W4FzZBsj1zNst_UjJ-54" edge="1">
          <mxGeometry width="50" height="50" relative="1" as="geometry">
            <mxPoint x="589.8521999999999" y="898.13309" as="sourcePoint" />
            <mxPoint x="608.7" y="887.0699999999999" as="targetPoint" />
          </mxGeometry>
        </mxCell>
        <mxCell id="EZ3W4FzZBsj1zNst_UjJ-54" value="" style="sketch=0;points=[[0,0,0],[0.25,0,0],[0.5,0,0],[0.75,0,0],[1,0,0],[0,1,0],[0.25,1,0],[0.5,1,0],[0.75,1,0],[1,1,0],[0,0.25,0],[0,0.5,0],[0,0.75,0],[1,0.25,0],[1,0.5,0],[1,0.75,0]];outlineConnect=0;fontColor=#232F3E;fillColor=#01A88D;strokeColor=#ffffff;dashed=0;verticalLabelPosition=bottom;verticalAlign=top;align=center;html=1;fontSize=12;fontStyle=0;aspect=fixed;shape=mxgraph.aws4.resourceIcon;resIcon=mxgraph.aws4.augmented_ai;" parent="1" vertex="1">
          <mxGeometry x="600.25" y="951" width="17" height="17" as="geometry" />
        </mxCell>
        <mxCell id="EZ3W4FzZBsj1zNst_UjJ-56" value="" style="group" parent="1" vertex="1" connectable="0">
          <mxGeometry x="421" y="913" width="27.25" height="17.190000000000055" as="geometry" />
        </mxCell>
        <mxCell id="EZ3W4FzZBsj1zNst_UjJ-35" value="" style="sketch=0;points=[[0,0,0],[0.25,0,0],[0.5,0,0],[0.75,0,0],[1,0,0],[0,1,0],[0.25,1,0],[0.5,1,0],[0.75,1,0],[1,1,0],[0,0.25,0],[0,0.5,0],[0,0.75,0],[1,0.25,0],[1,0.5,0],[1,0.75,0]];outlineConnect=0;fontColor=#232F3E;fillColor=#01A88D;strokeColor=#ffffff;dashed=0;verticalLabelPosition=bottom;verticalAlign=top;align=center;html=1;fontSize=12;fontStyle=0;aspect=fixed;shape=mxgraph.aws4.resourceIcon;resIcon=mxgraph.aws4.augmented_ai;" parent="EZ3W4FzZBsj1zNst_UjJ-56" vertex="1">
          <mxGeometry x="10.25" y="0.19000000000005457" width="17" height="17" as="geometry" />
        </mxCell>
        <mxCell id="EZ3W4FzZBsj1zNst_UjJ-36" value="" style="sketch=0;html=1;aspect=fixed;strokeColor=none;shadow=0;fillColor=#3B8DF1;verticalAlign=top;labelPosition=center;verticalLabelPosition=bottom;shape=mxgraph.gcp2.process" parent="EZ3W4FzZBsj1zNst_UjJ-56" vertex="1">
          <mxGeometry y="2" width="10" height="11.9" as="geometry" />
        </mxCell>
        <mxCell id="EZ3W4FzZBsj1zNst_UjJ-57" value="" style="sketch=0;html=1;aspect=fixed;strokeColor=none;shadow=0;fillColor=#3B8DF1;verticalAlign=top;labelPosition=center;verticalLabelPosition=bottom;shape=mxgraph.gcp2.process" parent="1" vertex="1">
          <mxGeometry x="575.25" y="944.9699999999999" width="10" height="11.9" as="geometry" />
        </mxCell>
        <mxCell id="Wt1u3QUYMkSBLmh_clsM-1" value="..." style="text;html=1;align=center;verticalAlign=middle;whiteSpace=wrap;rounded=0;" vertex="1" parent="1">
          <mxGeometry x="659.18" y="948.68" width="35.82" height="30" as="geometry" />
        </mxCell>
      </root>
    </mxGraphModel>
  </diagram>
</mxfile>
